<svg width="117" height="27" viewBox="0 0 117 27" fill="none" xmlns="http://www.w3.org/2000/svg">
<path d="M20.9782 14.7662L14.9582 25.0763L8.93838 14.7662H20.9782ZM22.5909 13.8447H7.31915L14.9582 26.9L22.5909 13.8447Z" fill="white"/>
<path d="M31.4445 1.94279L37.4644 12.2529H25.4246L31.4445 1.94279ZM31.4445 0.0998535L23.8054 13.1551H39.0836L31.4445 0.0998535Z" fill="white"/>
<path d="M0 0.0998535L6.40514 11.6472L13.4044 0.38981L0 0.0998535Z" fill="#86AF96"/>
<path d="M14.9584 1.11157L21.677 12.5945H8.22687L14.9584 1.11157Z" fill="#86AF96"/>
<path d="M23.4072 15.1013L30.1322 26.9H16.3622L23.1982 15.1013H23.4072Z" fill="#86AF96"/>
<path d="M24.8631 14.386L31.4445 26.0042L38.1173 14.386H24.8631Z" fill="#86AF96"/>
<path d="M60.2044 15.089L63.3518 16.087C62.8693 17.8416 62.0651 19.1466 60.9392 20.002C59.8206 20.8501 58.3986 21.2742 56.6732 21.2742C54.5383 21.2742 52.7837 20.5467 51.4092 19.0918C50.0347 17.6296 49.3475 15.6337 49.3475 13.1041C49.3475 10.4282 50.0384 8.35186 51.4202 6.87502C52.802 5.39088 54.6188 4.64881 56.8706 4.64881C58.8372 4.64881 60.4347 5.23003 61.663 6.39249C62.3941 7.07973 62.9424 8.06673 63.308 9.35347L60.0947 10.1211C59.9047 9.28768 59.5062 8.62968 58.8994 8.14715C58.2999 7.66462 57.5688 7.42335 56.7061 7.42335C55.5144 7.42335 54.5456 7.85105 53.7999 8.70645C53.0615 9.56184 52.6923 10.9473 52.6923 12.8628C52.6923 14.8953 53.0578 16.3429 53.7889 17.2056C54.5201 18.0683 55.4705 18.4996 56.6403 18.4996C57.503 18.4996 58.245 18.2255 58.8665 17.6771C59.4879 17.1288 59.9339 16.2661 60.2044 15.089ZM68.4294 12.9067L65.6329 12.4022C65.9472 11.2763 66.4883 10.4428 67.2559 9.9018C68.0236 9.36079 69.1641 9.09028 70.6775 9.09028C72.052 9.09028 73.0755 9.25478 73.7482 9.58377C74.4208 9.90546 74.8923 10.3185 75.1628 10.823C75.4407 11.3202 75.5796 12.2377 75.5796 13.5756L75.5467 17.1727C75.5467 18.1962 75.5942 18.9529 75.6892 19.4427C75.7916 19.9253 75.978 20.4444 76.2485 21H73.1998C73.1194 20.7953 73.0207 20.4919 72.9037 20.0898C72.8525 19.907 72.816 19.7864 72.7941 19.7279C72.2677 20.2396 71.7047 20.6235 71.1052 20.8794C70.5057 21.1353 69.866 21.2632 69.1861 21.2632C67.987 21.2632 67.0403 20.9379 66.3457 20.2872C65.6585 19.6365 65.3148 18.814 65.3148 17.8197C65.3148 17.1617 65.472 16.5768 65.7864 16.065C66.1008 15.5459 66.5394 15.1511 67.1024 14.8806C67.6727 14.6028 68.4915 14.3616 69.5589 14.1568C70.9992 13.8863 71.9972 13.6341 72.5528 13.4001V13.0931C72.5528 12.5009 72.4066 12.0805 72.1141 11.8319C71.8217 11.576 71.2697 11.4481 70.4582 11.4481C69.9098 11.4481 69.4821 11.5578 69.1751 11.7771C68.868 11.9891 68.6194 12.3656 68.4294 12.9067ZM72.5528 15.407C72.158 15.5386 71.5329 15.6958 70.6775 15.8786C69.8221 16.0614 69.2628 16.2405 68.9996 16.416C68.5975 16.7011 68.3965 17.063 68.3965 17.5017C68.3965 17.933 68.5573 18.3059 68.879 18.6202C69.2007 18.9346 69.6101 19.0918 70.1072 19.0918C70.6629 19.0918 71.1929 18.909 71.6974 18.5435C72.0703 18.2657 72.3152 17.9257 72.4322 17.5236C72.5126 17.2604 72.5528 16.7596 72.5528 16.0212V15.407ZM78.6283 21V4.92297H81.7099V21H78.6283ZM84.8792 21V4.92297H87.9609V21H84.8792ZM91.1302 7.77428V4.92297H94.2118V7.77428H91.1302ZM91.1302 21V9.35347H94.2118V21H91.1302ZM96.0323 9.35347H97.7431V8.47615C97.7431 7.49646 97.8454 6.76536 98.0501 6.28283C98.2622 5.8003 98.646 5.40916 99.2016 5.1094C99.7646 4.80234 100.474 4.64881 101.329 4.64881C102.206 4.64881 103.066 4.7804 103.906 5.0436L103.49 7.19306C103 7.07608 102.528 7.01759 102.075 7.01759C101.629 7.01759 101.307 7.1236 101.11 7.33562C100.92 7.54033 100.825 7.93878 100.825 8.53098V9.35347H103.128V11.7771H100.825V21H97.7431V11.7771H96.0323V9.35347ZM103.402 9.35347H106.681L109.466 17.6223L112.186 9.35347H115.377L111.265 20.5613L110.53 22.5902C110.26 23.2701 110 23.7892 109.751 24.1474C109.51 24.5057 109.229 24.7944 108.907 25.0138C108.593 25.2404 108.202 25.4159 107.734 25.5402C107.273 25.6645 106.75 25.7266 106.165 25.7266C105.573 25.7266 104.992 25.6645 104.422 25.5402L104.148 23.1275C104.63 23.2226 105.065 23.2701 105.453 23.2701C106.169 23.2701 106.699 23.0581 107.043 22.634C107.386 22.2173 107.65 21.6836 107.832 21.0329L103.402 9.35347Z" fill="white"/>
</svg>
